<svg width="57" height="32" viewBox="0 0 57 32" fill="none" xmlns="http://www.w3.org/2000/svg">
<g clip-path="url(#clip0_2214_6197)">
<path d="M35.3334 9L21.3334 23M25.3334 10.5C25.3334 11.8807 24.2141 13 22.8334 13C21.4527 13 20.3334 11.8807 20.3334 10.5C20.3334 9.11929 21.4527 8 22.8334 8C24.2141 8 25.3334 9.11929 25.3334 10.5ZM36.3334 21.5C36.3334 22.8807 35.2141 24 33.8334 24C32.4527 24 31.3334 22.8807 31.3334 21.5C31.3334 20.1193 32.4527 19 33.8334 19C35.2141 19 36.3334 20.1193 36.3334 21.5Z" stroke="#4A4459" stroke-width="2.5" stroke-linecap="round" stroke-linejoin="round"/>
</g>
<defs>
<clipPath id="clip0_2214_6197">
<rect x="0.333374" width="56" height="32" rx="16" fill="white"/>
</clipPath>
</defs>
</svg>
